<svg xmlns="http://www.w3.org/2000/svg" xmlns:xlink="http://www.w3.org/1999/xlink" width="500" zoomAndPan="magnify" viewBox="0 0 375 374.999991" height="500" preserveAspectRatio="xMidYMid meet" version="1.0"><defs><clipPath id="17c1064f3f"><path d="M 1.023438 0 L 373.773438 0 L 373.773438 375 L 1.023438 375 Z M 1.023438 0 " clip-rule="nonzero"/></clipPath></defs><g clip-path="url(#17c1064f3f)"><path fill="#65cf72" d="M 319.425781 54.644531 C 284.390625 19.550781 237.800781 0.191406 188.15625 0.191406 C 85.867188 0.191406 2.613281 83.46875 2.578125 185.851562 C 2.578125 218.570312 11.113281 250.527344 27.355469 278.671875 L 1.023438 374.882812 L 99.402344 349.054688 C 126.511719 363.859375 157.03125 371.640625 188.082031 371.660156 L 188.15625 371.660156 C 290.425781 371.660156 373.699219 288.359375 373.71875 186 C 373.71875 136.382812 354.460938 89.75 319.40625 54.644531 Z M 188.15625 340.3125 L 188.101562 340.3125 C 160.4375 340.3125 133.273438 332.863281 109.589844 318.800781 L 103.960938 315.449219 L 45.574219 330.769531 L 61.148438 273.816406 L 57.480469 267.980469 C 42.039062 243.414062 33.890625 215.011719 33.910156 185.851562 C 33.945312 100.773438 103.144531 31.539062 188.210938 31.539062 C 229.414062 31.539062 268.132812 47.621094 297.261719 76.800781 C 326.386719 105.960938 342.40625 144.738281 342.386719 185.980469 C 342.347656 271.074219 273.152344 340.3125 188.136719 340.3125 Z M 272.761719 224.738281 C 268.132812 222.421875 245.335938 211.195312 241.078125 209.660156 C 236.820312 208.101562 233.746094 207.34375 230.652344 211.972656 C 227.5625 216.625 218.671875 227.074219 215.96875 230.167969 C 213.265625 233.261719 210.5625 233.652344 205.914062 231.316406 C 201.285156 229 186.34375 224.089844 168.621094 208.289062 C 154.84375 195.984375 145.53125 180.792969 142.828125 176.144531 C 140.125 171.492188 142.550781 168.992188 144.863281 166.675781 C 146.9375 164.601562 149.492188 161.246094 151.828125 158.542969 C 154.140625 155.835938 154.917969 153.890625 156.457031 150.796875 C 158.011719 147.703125 157.234375 145 156.066406 142.664062 C 154.898438 140.347656 145.640625 117.503906 141.773438 108.222656 C 138.011719 99.179688 134.179688 100.40625 131.347656 100.257812 C 128.644531 100.125 125.550781 100.089844 122.457031 100.089844 C 119.367188 100.089844 114.347656 101.238281 110.089844 105.886719 C 105.828125 110.539062 93.867188 121.765625 93.867188 144.589844 C 93.867188 167.417969 110.476562 189.480469 112.8125 192.59375 C 115.125 195.6875 145.511719 242.542969 192.027344 262.644531 C 203.082031 267.425781 211.730469 270.277344 218.46875 272.429688 C 229.578125 275.964844 239.691406 275.464844 247.671875 274.261719 C 256.578125 272.929688 275.09375 263.035156 278.964844 252.195312 C 282.835938 241.359375 282.835938 232.074219 281.667969 230.128906 C 280.5 228.183594 277.410156 227.035156 272.78125 224.703125 Z M 272.761719 224.738281 " fill-opacity="1" fill-rule="evenodd"/></g></svg>